<svg width="379" height="466" viewBox="0 0 379 466" fill="none" xmlns="http://www.w3.org/2000/svg">
<g opacity="0.2" filter="url(#filter0_d)">
<path d="M345.08 353.711C404.046 268.744 372.542 270.601 210.131 162.527C137.681 114.317 62.4873 17.1956 7.61148 7.67939C-60.5287 -4.13708 -95.7619 70.1581 -128.424 117.222C-187.39 202.188 -197.771 298.439 -35.3597 406.513C127.051 514.587 286.114 438.677 345.08 353.711Z" fill="url(#paint0_linear)"/>
<path d="M345.08 353.711C404.046 268.744 372.542 270.601 210.131 162.527C137.681 114.317 62.4873 17.1956 7.61148 7.67939C-60.5287 -4.13708 -95.7619 70.1581 -128.424 117.222C-187.39 202.188 -197.771 298.439 -35.3597 406.513C127.051 514.587 286.114 438.677 345.08 353.711Z" fill="url(#paint1_radial)"/>
</g>
<defs>
<filter id="filter0_d" x="-173.913" y="0.423828" width="552.552" height="465.456" filterUnits="userSpaceOnUse" color-interpolation-filters="sRGB">
<feFlood flood-opacity="0" result="BackgroundImageFix"/>
<feColorMatrix in="SourceAlpha" type="matrix" values="0 0 0 0 0 0 0 0 0 0 0 0 0 0 0 0 0 0 127 0"/>
<feOffset/>
<feGaussianBlur stdDeviation="3"/>
<feColorMatrix type="matrix" values="0 0 0 0 1 0 0 0 0 0.298039 0 0 0 0 0.4 0 0 0 0.6 0"/>
<feBlend mode="normal" in2="BackgroundImageFix" result="effect1_dropShadow"/>
<feBlend mode="normal" in="SourceGraphic" in2="effect1_dropShadow" result="shape"/>
</filter>
<linearGradient id="paint0_linear" x1="-247.169" y1="99.1605" x2="333.106" y2="501.866" gradientUnits="userSpaceOnUse">
<stop stop-color="#FF4C66"/>
<stop offset="0.676156" stop-color="#6F53FF"/>
<stop offset="1" stop-color="#12F7E9"/>
</linearGradient>
<radialGradient id="paint1_radial" cx="0" cy="0" r="1" gradientUnits="userSpaceOnUse" gradientTransform="translate(155.402 471.156) rotate(-99.5973) scale(271.279 341.936)">
<stop stop-color="#00EFE1"/>
<stop offset="1" stop-color="white" stop-opacity="0"/>
</radialGradient>
</defs>
</svg>
