<svg width="341" height="476" viewBox="0 0 341 476" fill="none" xmlns="http://www.w3.org/2000/svg">
<g opacity="0.2" filter="url(#filter0_d)">
<path d="M295.909 393.044C370.961 318.412 338.257 315.944 189.641 188.805C123.346 132.09 62.5351 27.4356 7.73488 10.7356C-60.3115 -10.001 -109.152 57.4723 -150.724 98.8114C-225.776 173.443 -252.795 265.64 -104.179 392.779C44.4363 519.918 220.857 467.675 295.909 393.044Z" fill="url(#paint0_linear)"/>
<path d="M295.909 393.044C370.961 318.412 338.257 315.944 189.641 188.805C123.346 132.09 62.5351 27.4356 7.73488 10.7356C-60.3115 -10.001 -109.152 57.4723 -150.724 98.8114C-225.776 173.443 -252.795 265.64 -104.179 392.779C44.4363 519.918 220.857 467.675 295.909 393.044Z" fill="url(#paint1_radial)"/>
</g>
<defs>
<filter id="filter0_d" x="-217.488" y="0.868652" width="558.264" height="474.923" filterUnits="userSpaceOnUse" color-interpolation-filters="sRGB">
<feFlood flood-opacity="0" result="BackgroundImageFix"/>
<feColorMatrix in="SourceAlpha" type="matrix" values="0 0 0 0 0 0 0 0 0 0 0 0 0 0 0 0 0 0 127 0"/>
<feOffset/>
<feGaussianBlur stdDeviation="3"/>
<feColorMatrix type="matrix" values="0 0 0 0 1 0 0 0 0 0.298039 0 0 0 0 0.4 0 0 0 0.6 0"/>
<feBlend mode="normal" in2="BackgroundImageFix" result="effect1_dropShadow"/>
<feBlend mode="normal" in="SourceGraphic" in2="effect1_dropShadow" result="shape"/>
</filter>
<linearGradient id="paint0_linear" x1="-269.735" y1="65.1356" x2="228.047" y2="565.723" gradientUnits="userSpaceOnUse">
<stop stop-color="#FF4C66"/>
<stop offset="0.676156" stop-color="#6F53FF"/>
<stop offset="1" stop-color="#12F7E9"/>
</linearGradient>
<radialGradient id="paint1_radial" cx="0" cy="0" r="1" gradientUnits="userSpaceOnUse" gradientTransform="translate(80.9595 481.527) rotate(-90.2302) scale(266.27 356.334)">
<stop stop-color="#00EFE1"/>
<stop offset="1" stop-color="white" stop-opacity="0"/>
</radialGradient>
</defs>
</svg>
