<svg width="444" height="502" viewBox="0 0 444 502" fill="none" xmlns="http://www.w3.org/2000/svg">
<g opacity="0.2" filter="url(#filter0_di)">
<path d="M405.307 351.384C451.2 258.004 418.848 262.652 230.9 164.363C147.059 120.518 51.5713 26.0846 -7.07585 20.9315C-79.8989 14.5327 -85.8784 75.2542 -111.299 126.979C-157.193 220.359 -167.859 340.795 20.0885 439.083C208.036 537.372 359.413 444.764 405.307 351.384Z" fill="url(#paint0_linear)"/>
<path d="M405.307 351.384C451.2 258.004 418.848 262.652 230.9 164.363C147.059 120.518 51.5713 26.0846 -7.07585 20.9315C-79.8989 14.5327 -85.8784 75.2542 -111.299 126.979C-157.193 220.359 -167.859 340.795 20.0885 439.083C208.036 537.372 359.413 444.764 405.307 351.384Z" fill="url(#paint1_radial)"/>
</g>
<defs>
<filter id="filter0_di" x="-159.549" y="0.465332" width="603.424" height="500.673" filterUnits="userSpaceOnUse" color-interpolation-filters="sRGB">
<feFlood flood-opacity="0" result="BackgroundImageFix"/>
<feColorMatrix in="SourceAlpha" type="matrix" values="0 0 0 0 0 0 0 0 0 0 0 0 0 0 0 0 0 0 127 0"/>
<feOffset/>
<feGaussianBlur stdDeviation="10"/>
<feColorMatrix type="matrix" values="0 0 0 0 1 0 0 0 0 0.298039 0 0 0 0 0.4 0 0 0 1 0"/>
<feBlend mode="normal" in2="BackgroundImageFix" result="effect1_dropShadow"/>
<feBlend mode="normal" in="SourceGraphic" in2="effect1_dropShadow" result="shape"/>
<feColorMatrix in="SourceAlpha" type="matrix" values="0 0 0 0 0 0 0 0 0 0 0 0 0 0 0 0 0 0 127 0" result="hardAlpha"/>
<feOffset/>
<feGaussianBlur stdDeviation="3"/>
<feComposite in2="hardAlpha" operator="arithmetic" k2="-1" k3="1"/>
<feColorMatrix type="matrix" values="0 0 0 0 0.741176 0 0 0 0 0.254902 0 0 0 0 0.4 0 0 0 1 0"/>
<feBlend mode="normal" in2="shape" result="effect2_innerShadow"/>
</filter>
<linearGradient id="paint0_linear" x1="-254.961" y1="137.98" x2="434.142" y2="476.653" gradientUnits="userSpaceOnUse">
<stop stop-color="#FF4C66"/>
<stop offset="0.676156" stop-color="#6F53FF"/>
<stop offset="1" stop-color="#12F7E9"/>
</linearGradient>
<radialGradient id="paint1_radial" cx="0" cy="0" r="1" gradientUnits="userSpaceOnUse" gradientTransform="translate(229.639 489.795) rotate(-109.127) scale(290.062 349.746)">
<stop stop-color="#00EFE1"/>
<stop offset="1" stop-color="white" stop-opacity="0"/>
</radialGradient>
</defs>
</svg>
